<?xml version="1.0" encoding="UTF-8"?>
<!DOCTYPE svg PUBLIC "-//W3C//DTD SVG 1.1//EN" "http://www.w3.org/Graphics/SVG/1.1/DTD/svg11.dtd">
<svg version="1.1" xmlns="http://www.w3.org/2000/svg" xmlns:xlink="http://www.w3.org/1999/xlink" x="0" y="0" width="16.714" height="16.714" viewBox="0, 0, 16.714, 16.714">
  <g id="SideBar" transform="translate(73, -44)">
    <path d="M-56.929,45 L-72.357,45 C-72.713,45 -73,45.288 -73,45.643 C-73,45.998 -72.713,46.286 -72.357,46.286 L-56.929,46.286 C-56.573,46.286 -56.286,45.998 -56.286,45.643 C-56.286,45.288 -56.573,45 -56.929,45 z"/>
    <path d="M-56.929,52.357 L-72.357,52.357 C-72.713,52.357 -73,52.645 -73,53 C-73,53.355 -72.713,53.643 -72.357,53.643 L-56.929,53.643 C-56.573,53.643 -56.286,53.355 -56.286,53 C-56.286,52.645 -56.573,52.357 -56.929,52.357 z"/>
    <path d="M-56.929,59.429 L-72.357,59.429 C-72.713,59.429 -73,59.717 -73,60.071 C-73,60.426 -72.713,60.714 -72.357,60.714 L-56.929,60.714 C-56.573,60.714 -56.286,60.426 -56.286,60.071 C-56.286,59.717 -56.573,59.429 -56.929,59.429 z"/>
  </g>
</svg>
